<?xml version="1.0" encoding="UTF-8"?>
<svg width="20px" height="16px" viewBox="0 0 20 16" version="1.1" xmlns="http://www.w3.org/2000/svg" xmlns:xlink="http://www.w3.org/1999/xlink">
    <title>形状</title>
    <g id="多签" stroke="none" stroke-width="1" fill="none" fill-rule="evenodd">
        <g id="多签账号列表" transform="translate(-1235.000000, -451.000000)" fill="#98959F">
            <g id="编组-2" transform="translate(230.000000, 434.000000)">
                <g id="矩形" transform="translate(990.000000, 12.000000)">
                    <path d="M25.4564549,14.1507678 C26.548873,13.3906811 27.2604508,12.133099 27.2604508,10.7120166 C27.2604508,8.94294978 26.1535861,7.42248493 24.5868852,6.79733693 C24.0910861,6.59128582 23.5519467,6.48461721 22.9842213,6.48461721 C20.6269467,6.48461721 18.7082992,8.38162808 18.7082992,10.7120166 C18.7082992,12.1328075 19.4269467,13.3906811 20.5122951,14.1507678 C17.6659836,15.1597479 15.625,17.8384124 15.625,21 L30.3431352,21 C30.3431352,19.898632 30.0987705,18.8613818 29.6460041,17.9235141 C28.8268443,16.1757227 27.3105533,14.811472 25.4564549,14.1507678 L25.4564549,14.1507678 Z M30.0271516,11.8276653 C30.9972336,11.1456857 31.6298156,10.030037 31.6298156,8.76546021 C31.6298156,6.68367366 29.9266393,5 27.8207992,5 C26.8577869,5 25.9737705,5.35527059 25.3055328,5.94486238 C27.1021516,6.79762837 28.3384221,8.61624073 28.3384221,10.7123081 C28.3384221,11.8492322 27.9646516,12.9433141 27.2964139,13.8386309 C28.9061475,14.7834933 30.142418,16.2328458 30.8177254,17.9238055 L34.375,17.9238055 C34.375,15.1099109 32.5568648,12.7226908 30.0271516,11.8276653 Z" id="形状"></path>
                </g>
            </g>
        </g>
    </g>
</svg>