<?xml version="1.0" encoding="UTF-8"?>
<svg width="16px" height="16px" viewBox="0 0 16 16" version="1.1" xmlns="http://www.w3.org/2000/svg" xmlns:xlink="http://www.w3.org/1999/xlink">
    <title>切片</title>
    <g id="多签" stroke="none" stroke-width="1" fill="none" fill-rule="evenodd" opacity="0.5">
        <g id="新增多签账号" transform="translate(-299.000000, -147.000000)" fill="#5930DD">
            <g id="icon/copy" transform="translate(299.000000, 147.000000)">
                <path d="M8,0 C12.418278,0 16,3.581722 16,8 C16,12.418278 12.418278,16 8,16 C3.581722,16 0,12.418278 0,8 C0,3.581722 3.581722,0 8,0 Z M8.108,11.078 C7.8,11.078 7.548,11.176 7.338,11.372 C7.128,11.568 7.03,11.82 7.03,12.128 C7.03,12.436 7.128,12.688 7.338,12.884 C7.548,13.08 7.8,13.192 8.108,13.192 C8.416,13.192 8.668,13.094 8.878,12.898 C9.088,12.702 9.2,12.436 9.2,12.128 C9.2,11.82 9.088,11.568 8.892,11.372 C8.682,11.176 8.416,11.078 8.108,11.078 Z M8.36,3 C7.324,3 6.512,3.294 5.91,3.882 C5.294,4.47 5,5.282 5,6.318 L6.596,6.318 C6.596,5.73 6.708,5.268 6.946,4.946 C7.212,4.554 7.646,4.372 8.262,4.372 C8.738,4.372 9.116,4.498 9.382,4.764 C9.634,5.03 9.774,5.394 9.774,5.856 C9.774,6.206 9.648,6.542 9.396,6.85 L9.228,7.046 C8.318,7.858 7.772,8.446 7.59,8.824 C7.394,9.202 7.31,9.664 7.31,10.196 L7.31,10.392 L8.92,10.392 L8.92,10.196 C8.92,9.86 8.99,9.566 9.13,9.286 C9.256,9.034 9.438,8.796 9.69,8.586 C10.362,7.998 10.768,7.62 10.894,7.48 C11.23,7.032 11.412,6.458 11.412,5.758 C11.412,4.904 11.132,4.232 10.572,3.742 C10.012,3.238 9.27,3 8.36,3 Z" id="形状结合"></path>
            </g>
        </g>
    </g>
</svg>