<?xml version="1.0" encoding="UTF-8"?>
<svg width="30px" height="30px" viewBox="0 0 30 30" version="1.1" xmlns="http://www.w3.org/2000/svg" xmlns:xlink="http://www.w3.org/1999/xlink">
    <!-- Generator: Sketch 60 (88103) - https://sketch.com -->
    <title>icon/资产</title>
    <desc>Created with Sketch.</desc>
    <g id="icon/资产" stroke="none" stroke-width="1" fill="none" fill-rule="evenodd">
        <path d="M24,12.2307586 C24,11.0884431 23.0653327,10.1538283 21.9230471,10.1538283 L9.11536932,10.1538283 C8.52691501,10.1538283 8.07688787,9.70383114 8.07688787,9.11537932 C8.07688787,8.52689499 8.56150554,8.07689787 9.11536932,8.07689787 L20.8845807,8.07689787 C21.473035,8.07689787 21.9230621,7.62690075 21.9230621,7.03844894 C21.9230621,6.44999462 21.473035,6 20.8845807,6 L19.8461317,6 L20.5384227,6 L8.07690037,6 C6.9346148,6 6,6.9346148 6,8.07690037 L6,21.2307336 C6,22.3730192 6.9346148,23.307634 8.07690037,23.307634 L21.9230696,23.307634 C23.0653552,23.307634 24,22.3730192 24,21.2307336 L24,12.2307411 L24,12.2307586 Z M17.0768929,16.7307549 C17.0768929,16.1422706 17.52689,15.6922734 18.1153743,15.6922734 L20.8845681,15.6922734 C21.4730225,15.6922734 21.9230496,16.1422706 21.9230496,16.7307549 C21.9230496,17.3192092 21.4730225,17.7692038 20.8845681,17.7692038 L18.1153743,17.7692038 C17.52689,17.7692038 17.0768929,17.3192067 17.0768929,16.7307549 Z" id="形状" fill="#302B3C" fill-rule="nonzero"></path>
    </g>
</svg>