<?xml version="1.0" encoding="UTF-8"?>
<svg width="26px" height="26px" viewBox="0 0 26 26" version="1.1" xmlns="http://www.w3.org/2000/svg" xmlns:xlink="http://www.w3.org/1999/xlink">
    <title>形状结合</title>
    <g id="页面" stroke="none" stroke-width="1" fill="none" fill-rule="evenodd">
        <g id="polkadot-配色" transform="translate(-230.000000, -188.000000)" fill="#F82979">
            <path d="M243,188 C250.179701,188 256,193.820298 256,201 C256,208.179701 250.179701,214 243,214 C235.820298,214 230,208.179701 230,201 C230,193.820298 235.820298,188 243,188 Z M244.405614,206.850454 L241.595982,206.850454 C241.595982,207.639289 242.208993,208.25 243.000798,208.25 C243.792603,208.25 244.405614,207.639289 244.405614,206.850454 Z M241.979114,195.086314 L241.979114,195.569794 C239.950113,196.04055 238.392045,197.871093 238.392045,200.059474 L238.392045,203.696704 L237,205.121696 L237,205.834193 L249,205.834193 L249,205.121696 L247.609552,203.696704 L247.609552,200.059474 C247.609552,197.871093 246.051483,196.04055 244.022482,195.557071 L244.022482,195.099038 C244.022482,194.590112 243.741519,194.132078 243.256219,194.030293 C242.553811,193.864892 241.979114,194.399264 241.979114,195.086314 Z" id="形状结合"></path>
        </g>
    </g>
</svg>