<?xml version="1.0" encoding="UTF-8"?>
<svg width="30px" height="30px" viewBox="0 0 30 30" version="1.1" xmlns="http://www.w3.org/2000/svg" xmlns:xlink="http://www.w3.org/1999/xlink">
    <!-- Generator: Sketch 60 (88103) - https://sketch.com -->
    <title>icon/图表</title>
    <desc>Created with Sketch.</desc>
    <g id="icon/图表" stroke="none" stroke-width="1" fill="none" fill-rule="evenodd">
        <path d="M6,23.0268776 L6,23.0268752 C6.00305148,22.4928815 6.43355274,22.0598812 6.96751826,22.0537518 L23.032521,22.0537518 L23.032521,22.0537518 C23.5668574,22.0537518 24.000037,22.4868997 24.000037,23.0212361 C24.000037,23.0231166 24.000037,23.024997 24.000037,23.0268774 L24.000037,23.0268799 C23.9969855,23.5608736 23.5664842,23.9938738 23.0325187,24.0000033 L6.967516,24.0000033 L6.96751598,24.0000033 C6.43317957,24.0000033 6,23.5668554 6,23.032519 C6,23.0306385 6,23.028758 6,23.0268776 L6,23.0268776 Z M21.9998042,20.5947008 L19.5382862,20.5947008 L19.5382862,20.5947008 C19.1400589,20.6002578 18.8126681,20.2819967 18.8070358,19.8837695 C18.8070358,19.8837221 18.8070358,19.8836747 18.8070358,19.8836273 L18.8070358,11.5012509 C18.8070358,11.1075009 19.1344109,10.7902508 19.5382859,10.7902508 L21.9997863,10.7902508 C22.4036614,10.7902508 22.7310365,11.1086259 22.7310365,11.5012509 L22.7310365,19.8836273 C22.7310365,20.2762524 22.4036614,20.5947008 21.9997863,20.5947008 L21.9998042,20.5947008 Z M15.8460531,20.5947008 L13.3845351,20.5947008 L13.3845351,20.5947008 C12.9863079,20.6002578 12.658917,20.2819967 12.6532848,19.8837695 C12.6532848,19.8837221 12.6532848,19.8836747 12.6532848,19.8836273 L12.6532848,6.71100012 C12.6532848,6.31837505 12.9806422,6 13.3845349,6 L15.8460353,6 C16.2499104,6 16.5772854,6.31837505 16.5772854,6.71100012 L16.5772854,19.8836273 C16.5772854,20.2762524 16.2499104,20.5947008 15.8460353,20.5947008 L15.8460531,20.5947008 Z M9.6923021,20.5947008 L7.23078411,20.5947008 L7.23078409,20.5947008 C6.83255687,20.6002578 6.50516599,20.2819967 6.49953372,19.8837695 C6.49953372,19.8837221 6.49953372,19.8836747 6.49953372,19.8836273 L6.49953372,13.8963763 C6.49953372,13.5026263 6.82690878,13.1853762 7.23078385,13.1853762 L9.69228426,13.1853762 C10.0961593,13.1853762 10.4235344,13.5037513 10.4235344,13.8963763 L10.4235344,19.8836273 C10.4235344,20.2762524 10.0961593,20.5947008 9.69228426,20.5947008 L9.6923021,20.5947008 Z" id="形状" fill="#302B3C" fill-rule="nonzero"></path>
    </g>
</svg>