<?xml version="1.0" encoding="UTF-8"?>
<svg width="26px" height="26px" viewBox="0 0 26 26" version="1.1" xmlns="http://www.w3.org/2000/svg" xmlns:xlink="http://www.w3.org/1999/xlink">
    <!-- Generator: Sketch 60 (88103) - https://sketch.com -->
    <title>icon/mail</title>
    <desc>Created with Sketch.</desc>
    <g id="icon/mail" stroke="none" stroke-width="1" fill="none" fill-rule="evenodd">
        <path d="M22.0999822,0 L3.90001777,0 C1.69002209,0 0,1.6899967 0,3.90001777 L0,22.0999822 C0,24.3099779 1.6899967,26 3.90001777,26 L22.0999822,26 C24.3099779,26 26,24.3100033 26,22.0999822 L26,3.90001777 C26,1.69002209 24.3100033,0 22.0999822,0 Z" id="路径" fill="#FFFFFF" fill-rule="nonzero"></path>
        <path d="M8.97141826,14.4521243 C10.684493,14.4521243 11.4364236,14.8669521 12.298247,15.4024988 L12.4613882,15.5042566 L12.510708,15.5393276 L12.9078598,15.7918062 C13.119174,15.9214785 13.3519633,16.0559041 13.6168814,16.1933003 C14.0090884,16.405789 15.68832,16.5728929 16.7451721,16.626531 C16.8576933,16.6329493 16.958395,16.6457573 17.0501051,16.6649549 L17.2383563,16.7420605 L17.2391587,16.8185493 C17.2204574,17.0360391 17.0127265,17.6359319 15.2726099,17.5342549 C13.1542058,17.4104746 11.923558,16.8823447 11.3645974,16.5749573 C10.8056388,16.2675698 9.92023238,17.0865834 10.8056388,17.5466333 L11.0063331,17.6445535 C12.1766116,18.187905 15.7500903,19.4692215 17.2759336,18.4151589 C18.844773,17.3320805 18.9034863,16.4429249 18.4079408,15.8859135 C18.3803218,15.8564539 18.3493883,15.8328167 18.3026126,15.8541303 L18.5950848,15.6059444 L18.5950848,15.6059444 L18.9096797,15.3264956 C19.1626577,15.1128142 19.5871454,14.8172764 20.105964,14.8172764 C20.3173333,14.8172764 20.5380984,14.8709145 20.7494696,14.9761278 C21.3835607,15.3041391 21.6254618,15.9663635 21.3131038,16.4924305 L21.2565916,16.5810753 L20.0523107,17.9463634 L19.5515281,18.5266101 C18.8527858,19.3445206 18.5154649,19.7798482 18.3562724,20.0098591 C18.1625172,20.2935231 17.6490625,20.6811959 17.1379103,20.7438382 L16.9988042,20.7525414 L12.1912954,20.7525414 C12.0257216,20.7525414 11.858827,20.72237 11.7054733,20.66986 L11.5571837,20.610194 L11.5477895,20.610194 L11.5266524,20.5916269 L11.248513,20.4417688 L10.8261873,20.2226551 C10.2047578,19.905988 9.39809406,19.5193086 8.98315782,19.3992105 C8.68019765,19.3208162 7.27340622,19.2671781 6.13670311,19.2671781 C5.55660981,19.2671781 5.07371618,18.8793972 5.00769104,18.3846322 L5,18.2686844 L5,15.9457402 C5,15.4361792 5.44145673,15.0119997 6.00470601,14.9540024 L6.13670311,14.9472465 C6.52186764,14.9472465 6.86344236,14.8746286 7.20591945,14.7864309 L7.46364165,14.7182527 L7.51296141,14.6996856 C8.00615895,14.5676526 8.45943101,14.4521243 8.97141826,14.4521243 Z M17.3011445,6 C18.9536076,6 20.296624,7.34301302 20.296624,8.99547943 C20.296624,9.4900846 20.1671063,9.97837205 19.9218905,10.4244081 L19.8097547,10.6128748 C18.8191523,12.4251239 16.4640547,14.2373667 15.4591832,14.9579018 L15.0916617,15.2154439 L15.0730946,15.2236959 C14.9761332,15.2855861 14.8874234,15.3124052 14.7904622,15.3124052 C14.7313236,15.3124052 14.6685166,15.296818 14.606932,15.2705338 L14.5160833,15.2236959 C14.4810016,15.2071837 11.0357881,12.935819 9.7979847,10.6128748 C9.48853471,10.1342589 9.32143131,9.57931009 9.32143131,8.99547943 C9.32143131,7.34301642 10.6644443,6 12.3169107,6 C13.4928305,6 14.3840487,6.96136019 14.8090276,7.44822948 L14.9972575,7.23673908 L15.206351,7.018618 C15.6937914,6.53386668 16.403153,6 17.3011445,6 Z" id="形状" fill="#302B3C" fill-rule="nonzero"></path>
    </g>
</svg>