<?xml version="1.0" encoding="UTF-8"?>
<svg width="26px" height="26px" viewBox="0 0 26 26" version="1.1" xmlns="http://www.w3.org/2000/svg" xmlns:xlink="http://www.w3.org/1999/xlink">
    <!-- Generator: Sketch 60 (88103) - https://sketch.com -->
    <title>icon/语言</title>
    <desc>Created with Sketch.</desc>
    <g id="icon/语言" stroke="none" stroke-width="1" fill="none" fill-rule="evenodd">
        <path d="M22.0999822,0 L3.90001777,0 C1.69002209,0 0,1.6899967 0,3.90001777 L0,22.0999822 C0,24.3099779 1.6899967,26 3.90001777,26 L22.0999822,26 C24.3099779,26 26,24.3100033 26,22.0999822 L26,3.90001777 C26,1.69002209 24.3100033,0 22.0999822,0 Z" id="路径" fill="#FFFFFF" fill-rule="nonzero"></path>
        <path d="M13,21 C8.581722,21 5,17.418278 5,13 C5,8.581722 8.581722,5 13,5 C17.418278,5 21,8.581722 21,13 C21,17.418278 17.418278,21 13,21 Z" id="Path" fill="#302B3C" fill-rule="nonzero"></path>
        <path d="M6.36178696,15.2272727 L9.23778684,15.2272727 C9.14171505,14.5190635 9.09090909,13.7714884 9.09090909,13 C9.09090909,12.2285116 9.14171505,11.4809365 9.23778684,10.7727273 L6.36178696,10.7727273 C6.12713776,11.4723727 6,12.221339 6,13 C6,13.778661 6.12713776,14.5276273 6.36178696,15.2272727 L6.36178696,15.2272727 Z M6.78671342,16.2272727 C7.61802222,17.8244831 9.04713374,19.0608565 10.7774501,19.6397951 C10.1700873,18.7980113 9.69719422,17.6140882 9.40869453,16.2272727 L6.78671342,16.2272727 L6.78671342,16.2272727 Z M19.638213,15.2272727 C19.8728622,14.5276273 20,13.778661 20,13 C20,12.221339 19.8728622,11.4723727 19.638213,10.7727273 L16.7622132,10.7727273 C16.858285,11.4809365 16.9090909,12.2285116 16.9090909,13 C16.9090909,13.7714884 16.858285,14.5190635 16.7622132,15.2272727 L19.638213,15.2272727 L19.638213,15.2272727 Z M19.2132866,16.2272727 L16.5913055,16.2272727 C16.3028058,17.6140882 15.8299127,18.7980113 15.2225499,19.6397951 C16.9528663,19.0608565 18.3819778,17.8244831 19.2132866,16.2272727 L19.2132866,16.2272727 Z M10.2499269,15.2272727 L15.7500731,15.2272727 C15.8525487,14.5290922 15.9090909,13.780494 15.9090909,13 C15.9090909,12.219506 15.8525487,11.4709078 15.7500731,10.7727273 L10.2499269,10.7727273 C10.1474513,11.4709078 10.0909091,12.219506 10.0909091,13 C10.0909091,13.780494 10.1474513,14.5290922 10.2499269,15.2272727 Z M10.4351462,16.2272727 C10.9438981,18.4782534 11.9501586,20 13,20 C14.0498414,20 15.0561019,18.4782534 15.5648523,16.2272727 L10.4351462,16.2272727 L10.4351462,16.2272727 Z M6.78671342,9.77272727 L9.40869453,9.77272727 C9.69719422,8.38591182 10.1700873,7.2019887 10.7774501,6.36020491 C9.04713374,6.93914349 7.61802222,8.17551692 6.78671342,9.77272727 L6.78671342,9.77272727 Z M19.2132866,9.77272727 C18.3819778,8.17551692 16.9528663,6.93914349 15.2225499,6.36020491 C15.8299127,7.2019887 16.3028058,8.38591182 16.5913055,9.77272727 L19.2132866,9.77272727 L19.2132866,9.77272727 Z M10.4351462,9.77272727 L15.5648538,9.77272727 C15.0561019,7.52174659 14.0498414,6 13,6 C11.9501586,6 10.9438981,7.52174659 10.4351462,9.77272727 L10.4351462,9.77272727 Z M13,21 C8.581722,21 5,17.418278 5,13 C5,8.581722 8.581722,5 13,5 C17.418278,5 21,8.581722 21,13 C21,17.418278 17.418278,21 13,21 Z" id="Shape" fill="#FFFFFF" fill-rule="nonzero"></path>
    </g>
</svg>
