<?xml version="1.0" encoding="UTF-8"?>
<svg width="24px" height="19px" viewBox="0 0 24 19" version="1.1" xmlns="http://www.w3.org/2000/svg" xmlns:xlink="http://www.w3.org/1999/xlink">
    <title>形状</title>
    <g id="页面" stroke="none" stroke-width="1" fill="none" fill-rule="evenodd">
        <g id="底栏悬浮" transform="translate(-1403.000000, -406.000000)" fill="#302B3C" fill-rule="nonzero">
            <g id="编组-15" transform="translate(1228.000000, 342.000000)">
                <g id="编组-14" transform="translate(27.000000, 62.000000)">
                    <path d="M170.397233,2 L149.602522,2 C148.718356,2 148,2.78434037 148,3.75130774 L148,18.6016334 C148,19.5702715 148.717563,20.3529412 149.602522,20.3529412 L170.397233,20.3529412 C171.281618,20.3529412 172,19.5685717 172,18.6016334 L172,3.75130774 C172,2.78260845 171.282437,2 170.397233,2 Z M167.593737,8.26954466 L160.426193,12.7903474 C160.315253,12.8936111 160.17304,12.9482715 160.028889,12.9457054 C159.884764,12.9482714 159.742606,12.8936111 159.631638,12.7903474 L152.464068,8.26954466 C152.176747,8.08861663 152.077141,7.69003135 152.243962,7.37424489 C152.409772,7.06102132 152.775014,6.95179092 153.06408,7.13441997 L160.028888,11.527224 L166.99375,7.13441997 C167.282789,6.95179121 167.648031,7.06102249 167.813679,7.37424489 C167.980854,7.69003426 167.880866,8.0886175 167.593737,8.26954466 L167.593737,8.26954466 Z" id="形状"></path>
                </g>
            </g>
        </g>
    </g>
</svg>