<?xml version="1.0" encoding="UTF-8"?>
<svg width="24px" height="18px" viewBox="0 0 24 18" version="1.1" xmlns="http://www.w3.org/2000/svg" xmlns:xlink="http://www.w3.org/1999/xlink">
    <title>形状</title>
    <g id="页面" stroke="none" stroke-width="1" fill="none" fill-rule="evenodd">
        <g id="首页" transform="translate(-1366.000000, -1526.000000)" fill="#97959D" fill-rule="nonzero">
            <g id="编组-9" transform="translate(0.000000, 1394.000000)">
                <path d="M1388.39723,132 L1367.60252,132 C1366.71836,132 1366,132.769257 1366,133.717629 L1366,148.282371 C1366,149.232382 1366.71756,150 1367.60252,150 L1388.39723,150 C1389.28162,150 1390,149.230715 1390,148.282371 L1390,133.717629 C1390,132.767558 1389.28244,132 1388.39723,132 Z M1385.59374,138.148976 L1378.42619,142.582841 C1378.31525,142.684119 1378.17304,142.737728 1378.02889,142.735211 C1377.88476,142.737728 1377.74261,142.684119 1377.63164,142.582841 L1370.46407,138.148976 C1370.17675,137.971528 1370.07714,137.580608 1370.24396,137.270894 C1370.40977,136.963694 1370.77501,136.856564 1371.06408,137.035681 L1378.02889,141.344008 L1384.99375,137.035681 C1385.28279,136.856564 1385.64803,136.963695 1385.81368,137.270894 C1385.98085,137.580611 1385.88087,137.971529 1385.59374,138.148976 L1385.59374,138.148976 Z" id="形状"></path>
            </g>
        </g>
    </g>
</svg>