<?xml version="1.0" encoding="UTF-8"?>
<svg width="30px" height="30px" viewBox="0 0 30 30" version="1.1" xmlns="http://www.w3.org/2000/svg" xmlns:xlink="http://www.w3.org/1999/xlink">
    <!-- Generator: Sketch 63.1 (92452) - https://sketch.com -->
    <title>icon/账号信息</title>
    <desc>Created with Sketch.</desc>
    <g id="icon/账号信息" stroke="none" stroke-width="1" fill="none" fill-rule="evenodd">
        <path d="M22.102584,8 C22.4339548,8 22.702584,8.26862915 22.702584,8.6 C22.702584,8.78515426 22.6171003,8.95993761 22.4709484,9.07361133 L16.8513058,13.444 L16.8513058,21.9086077 C16.8513058,22.2399785 16.5826766,22.5086077 16.2513058,22.5086077 C16.1374495,22.5086077 16.0259433,22.4762123 15.9298111,22.4152053 L13.1298111,20.6382822 C12.9563811,20.5282208 12.8513058,20.3370903 12.8513058,20.1316846 L12.8513058,13.444 L7.23166321,9.07361133 C6.9700949,8.87016931 6.92297423,8.49320395 7.12641625,8.23163563 C7.24008997,8.08548371 7.41487332,8 7.60002758,8 L22.102584,8 Z M22.3513058,20 C22.6274482,20 22.8513058,20.2238576 22.8513058,20.5 L22.8513058,21.5 C22.8513058,21.7761424 22.6274482,22 22.3513058,22 L18.3513058,22 C18.0751634,22 17.8513058,21.7761424 17.8513058,21.5 L17.8513058,20.5 C17.8513058,20.2238576 18.0751634,20 18.3513058,20 L22.3513058,20 Z M22.3513058,17 C22.6274482,17 22.8513058,17.2238576 22.8513058,17.5 L22.8513058,18.5 C22.8513058,18.7761424 22.6274482,19 22.3513058,19 L18.3513058,19 C18.0751634,19 17.8513058,18.7761424 17.8513058,18.5 L17.8513058,17.5 C17.8513058,17.2238576 18.0751634,17 18.3513058,17 L22.3513058,17 Z M22.3513058,14 C22.6274482,14 22.8513058,14.2238576 22.8513058,14.5 L22.8513058,15.5 C22.8513058,15.7761424 22.6274482,16 22.3513058,16 L18.3513058,16 C18.0751634,16 17.8513058,15.7761424 17.8513058,15.5 L17.8513058,14.5 C17.8513058,14.2238576 18.0751634,14 18.3513058,14 L22.3513058,14 Z" id="形状结合" fill="#302B3C"></path>
    </g>
</svg>