<?xml version="1.0" encoding="UTF-8"?>
<svg width="26px" height="26px" viewBox="0 0 26 26" version="1.1" xmlns="http://www.w3.org/2000/svg" xmlns:xlink="http://www.w3.org/1999/xlink">
    <!-- Generator: Sketch 56.2 (81672) - https://sketch.com -->
    <title>icon/转账</title>
    <desc>Created with Sketch.</desc>
    <g id="icon/转账" stroke="none" stroke-width="1" fill="none" fill-rule="evenodd">
        <g id="编组-2" fill="#5930DD">
            <circle id="椭圆形" opacity="0.100000001" cx="13" cy="13" r="13"></circle>
            <path d="M14,11.3067234 L14,9.8 C14,9.3581722 14.3581722,9 14.8,9 C14.95794,9 15.1123461,9.04675042 15.2437602,9.13435976 L19.7515396,12.1395461 C20.1191626,12.3846281 20.2185017,12.8813235 19.9734197,13.2489465 C19.9148318,13.3368283 19.8394215,13.4122387 19.7515396,13.4708266 L15.2437602,16.4760129 C14.8761372,16.7210949 14.3794417,16.6217558 14.1343598,16.2541328 C14.0467504,16.1227188 14,15.9683126 14,15.8103727 L14,14.3036492 C13.9834642,14.3046689 13.9667925,14.3051863 13.95,14.3051863 L5.8,14.3051863 C5.3581722,14.3051863 5,13.9470141 5,13.5051863 L5,12.1051863 C5,11.6633585 5.3581722,11.3051863 5.8,11.3051863 L13.95,11.3051863 C13.9667925,11.3051863 13.9834642,11.3057037 14,11.3067234 Z" id="形状结合"></path>
        </g>
    </g>
</svg>