<?xml version="1.0" encoding="UTF-8"?>
<svg width="24px" height="24px" viewBox="0 0 24 24" version="1.1" xmlns="http://www.w3.org/2000/svg" xmlns:xlink="http://www.w3.org/1999/xlink">
    <title>github</title>
    <g id="页面" stroke="none" stroke-width="1" fill="none" fill-rule="evenodd">
        <g id="首页" transform="translate(-1290.000000, -1524.000000)" fill="#97959D" fill-rule="nonzero">
            <g id="编组-9" transform="translate(0.000000, 1394.000000)">
                <g id="github" transform="translate(1290.000000, 130.000000)">
                    <path d="M11.989303,1.3251622e-12 C5.36517812,-0.00264816788 -2.84217094e-14,5.35986478 -2.84217094e-14,11.9786225 C-2.84217094e-14,17.2125504 3.35625391,21.6616728 8.03037653,23.2955966 C8.65984055,23.4536325 8.56341387,23.0063095 8.56341387,22.7009537 L8.56341387,20.6250591 C4.92858152,21.0509518 4.78127666,18.6455935 4.53752637,18.2438063 C4.04466799,17.4027343 2.87948773,17.1884473 3.22770376,16.7866624 C4.05538363,16.3607698 4.89913461,16.8938055 5.87682403,18.3375564 C6.58396704,19.3848788 7.96343427,19.2080942 8.66253821,19.0339862 C8.81521705,18.4045221 9.14200204,17.8420215 9.59200257,17.4054132 C5.82592006,16.7304124 4.25628542,14.4321988 4.25628542,11.7000393 C4.25628542,10.3741456 4.69289374,9.15540357 5.55003693,8.17236336 C5.00360738,6.55182476 5.60092988,5.1643208 5.68128708,4.95807056 C7.23753889,4.81878461 8.85540796,6.07235857 8.98129092,6.17146416 C9.86522085,5.93307169 10.8750431,5.80717701 12.0054116,5.80717701 C13.1411262,5.80717701 14.1536274,5.93842717 15.045587,6.17949854 C15.3482663,5.94914116 16.848268,4.87235483 18.294708,5.00360499 C18.3723868,5.20985523 18.9563166,6.56521462 18.4420295,8.1643196 C19.3098883,9.15003403 19.7518521,10.3795011 19.7518521,11.7080737 C19.7518521,14.4455769 18.1714925,16.7464624 14.3947131,17.4107522 L14.3947131,17.4107523 C15.0481842,18.0533976 15.415926,18.9317306 15.415251,19.8482551 L15.415251,22.8616414 C15.4366796,23.1027128 15.415251,23.3411053 15.8170382,23.3411053 C20.5607937,21.7419956 23.9759696,17.260731 23.9759696,11.9812639 C23.9759696,5.35983436 18.6080962,1.3251622e-12 11.9893385,1.3251622e-12 L11.989303,1.3251622e-12 Z" id="路径"></path>
                </g>
            </g>
        </g>
    </g>
</svg>