<?xml version="1.0" encoding="UTF-8"?>
<svg width="24px" height="24px" viewBox="0 0 24 24" version="1.1" xmlns="http://www.w3.org/2000/svg" xmlns:xlink="http://www.w3.org/1999/xlink">
    <title>github</title>
    <g id="页面" stroke="none" stroke-width="1" fill="none" fill-rule="evenodd">
        <g id="底栏悬浮" transform="translate(-1327.000000, -404.000000)" fill="#302B3C" fill-rule="nonzero">
            <g id="编组-15" transform="translate(1228.000000, 342.000000)">
                <g id="编组-14" transform="translate(27.000000, 62.000000)">
                    <g id="github" transform="translate(72.000000, 0.000000)">
                        <path d="M11.989303,0.329433251 C5.36517812,0.326785083 0,5.68929803 0,12.3080557 C0,17.5419837 3.35625391,21.9911061 8.03037653,23.6250298 C8.65984055,23.7830658 8.56341387,23.3357428 8.56341387,23.030387 L8.56341387,20.9544924 C4.92858152,21.380385 4.78127666,18.9750268 4.53752637,18.5732396 C4.04466799,17.7321675 2.87948773,17.5178805 3.22770376,17.1160957 C4.05538363,16.690203 4.89913461,17.2232387 5.87682403,18.6669897 C6.58396704,19.714312 7.96343427,19.5375274 8.66253821,19.3634194 C8.81521705,18.7339554 9.14200204,18.1714547 9.59200257,17.7348464 C5.82592006,17.0598456 4.25628542,14.761632 4.25628542,12.0294726 C4.25628542,10.7035789 4.69289374,9.48483682 5.55003693,8.50179661 C5.00360738,6.88125801 5.60092988,5.49375405 5.68128708,5.28750381 C7.23753889,5.14821787 8.85540796,6.40179182 8.98129092,6.50089741 C9.86522085,6.26250494 10.8750431,6.13661027 12.0054116,6.13661027 C13.1411262,6.13661027 14.1536274,6.26786042 15.045587,6.50893179 C15.3482663,6.27857442 16.848268,5.20178808 18.294708,5.33303824 C18.3723868,5.53928848 18.9563166,6.89464787 18.4420295,8.49375285 C19.3098883,9.47946728 19.7518521,10.7089343 19.7518521,12.037507 C19.7518521,14.7750102 18.1714925,17.0758957 14.3947131,17.7401855 L14.3947131,17.7401855 C15.0481842,18.3828308 15.415926,19.2611639 15.415251,20.1776884 L15.415251,23.1910747 C15.4366796,23.4321461 15.415251,23.6705385 15.8170382,23.6705385 C20.5607937,22.0714289 23.9759696,17.5901643 23.9759696,12.3106972 C23.9759696,5.68926761 18.6080962,0.329433251 11.9893385,0.329433251 L11.989303,0.329433251 Z" id="路径"></path>
                    </g>
                </g>
            </g>
        </g>
    </g>
</svg>