<?xml version="1.0" encoding="UTF-8"?>
<svg width="30px" height="30px" viewBox="0 0 30 30" version="1.1" xmlns="http://www.w3.org/2000/svg" xmlns:xlink="http://www.w3.org/1999/xlink">
    <title>icon/Inflation rate</title>
    <g id="icon/Inflation-rate" stroke="none" stroke-width="1" fill="none" fill-rule="evenodd">
        <g id="编组-15" transform="translate(6.000000, 9.000000)">
            <g id="编组-14" transform="translate(7.700000, 5.390000)" stroke="#302B3C" stroke-linejoin="round">
                <path d="M5.00500002,7.70000004 C7.76918521,7.70000004 10.01,6.6657778 10.01,5.39000003 C10.01,5.18004389 10.01,4.15337721 10.01,2.31000001 C8.06121852,2.82333335 6.39288518,3.08000001 5.00500002,3.08000001 C3.92799807,3.08000001 2.25966473,2.82333335 0,2.31000001 C0,4.00989266 0,5.03655933 0,5.39000003 C0,6.6657778 2.24081484,7.70000004 5.00500002,7.70000004 Z" id="椭圆形" fill="#FFFFFF"></path>
                <ellipse id="椭圆形" fill="#302B3C" cx="5.00500002" cy="2.31000001" rx="5.00500002" ry="2.31000001"></ellipse>
            </g>
            <rect id="矩形" fill="#FFFFFF" x="3.85000002" y="0" width="7.70000004" height="13.8600001"></rect>
            <g id="编组-13" transform="translate(0.000000, 6.160000)" fill="#FFFFFF" stroke="#302B3C" stroke-linejoin="round">
                <path d="M5.00500002,7.70000004 C7.76918521,7.70000004 10.01,6.6657778 10.01,5.39000003 C10.01,5.18004389 10.01,4.15337721 10.01,2.31000001 C8.06121852,2.82333335 6.39288518,3.08000001 5.00500002,3.08000001 C3.92799807,3.08000001 2.25966473,2.82333335 0,2.31000001 C0,4.00989266 0,5.03655933 0,5.39000003 C0,6.6657778 2.24081484,7.70000004 5.00500002,7.70000004 Z" id="椭圆形"></path>
                <ellipse id="椭圆形" cx="5.00500002" cy="2.31000001" rx="5.00500002" ry="2.31000001"></ellipse>
            </g>
            <g id="编组-13" transform="translate(0.000000, 3.080000)" fill="#FFFFFF" stroke="#302B3C" stroke-linejoin="round">
                <path d="M5.00500002,7.70000004 C7.76918521,7.70000004 10.01,6.6657778 10.01,5.39000003 C10.01,5.18004389 10.01,4.15337721 10.01,2.31000001 C8.06121852,2.82333335 6.39288518,3.08000001 5.00500002,3.08000001 C3.92799807,3.08000001 2.25966473,2.82333335 0,2.31000001 C0,4.00989266 0,5.03655933 0,5.39000003 C0,6.6657778 2.24081484,7.70000004 5.00500002,7.70000004 Z" id="椭圆形"></path>
                <ellipse id="椭圆形" cx="5.00500002" cy="2.31000001" rx="5.00500002" ry="2.31000001"></ellipse>
            </g>
            <g id="编组-13" stroke="#302B3C" stroke-linejoin="round">
                <path d="M5.00500002,7.70000004 C7.76918521,7.70000004 10.01,6.6657778 10.01,5.39000003 C10.01,5.18004389 10.01,4.15337721 10.01,2.31000001 C8.06121852,2.82333335 6.39288518,3.08000001 5.00500002,3.08000001 C3.92799807,3.08000001 2.25966473,2.82333335 0,2.31000001 C0,4.00989266 0,5.03655933 0,5.39000003 C0,6.6657778 2.24081484,7.70000004 5.00500002,7.70000004 Z" id="椭圆形" fill="#FFFFFF"></path>
                <ellipse id="椭圆形" fill="#302B3C" cx="5.00500002" cy="2.31000001" rx="5.00500002" ry="2.31000001"></ellipse>
            </g>
        </g>
    </g>
</svg>