<?xml version="1.0" encoding="UTF-8"?>
<svg width="22px" height="22px" viewBox="0 0 22 22" version="1.1" xmlns="http://www.w3.org/2000/svg" xmlns:xlink="http://www.w3.org/1999/xlink">
    <title>medium</title>
    <g id="页面" stroke="none" stroke-width="1" fill="none" fill-rule="evenodd">
        <g id="首页" transform="translate(-1329.000000, -1525.000000)" fill="#97959D" fill-rule="nonzero">
            <g id="编组-9" transform="translate(0.000000, 1394.000000)">
                <g id="medium" transform="translate(1329.000000, 131.000000)">
                    <path d="M0.41250176,0.0830685087 L0.41250176,21.2580931 L21.5875264,21.2580931 L21.5875264,0.0830685087 L0.41250176,0.0830685087 Z M18.0047879,5.09795716 L16.8704115,6.1850678 C16.7711536,6.26069288 16.7238879,6.38358365 16.7427942,6.50174785 L16.7427942,14.5038275 C16.7238879,14.6267182 16.7711536,14.749609 16.8704115,14.8205075 L17.981155,15.9076182 L17.981155,16.1486731 L12.4038048,16.1486731 L12.4038048,15.9170713 L13.5523608,14.8016013 C13.6657984,14.6881636 13.6657984,14.6550777 13.6657984,14.4849212 L13.6657984,8.01424961 L10.4706385,16.1250403 L10.0405208,16.1250403 L6.32071176,8.01424961 L6.32071176,13.4498028 C6.28762578,13.6766781 6.36797744,13.9082799 6.52868075,14.0737098 L8.02227624,15.8839853 L8.02227624,16.1250403 L3.77781818,16.1250403 L3.77781818,15.8839853 L5.27141366,14.0737098 C5.43211698,13.9082799 5.5030155,13.6766781 5.46520295,13.4498028 L5.46520295,7.16346737 C5.48410922,6.98858436 5.41793727,6.81842791 5.28559337,6.70026371 L3.95742776,5.09795716 L3.95742776,4.85690219 L8.08372162,4.85690219 L11.2694285,11.8522228 L14.0722833,4.86162876 L18.0047879,4.86162876 L18.0047879,5.09795716 L18.0047879,5.09795716 Z" id="形状"></path>
                </g>
            </g>
        </g>
    </g>
</svg>