<?xml version="1.0" encoding="UTF-8"?>
<svg width="22px" height="22px" viewBox="0 0 22 22" version="1.1" xmlns="http://www.w3.org/2000/svg" xmlns:xlink="http://www.w3.org/1999/xlink">
    <title>medium</title>
    <g id="页面" stroke="none" stroke-width="1" fill="none" fill-rule="evenodd">
        <g id="底栏悬浮" transform="translate(-1366.000000, -405.000000)" fill="#302B3C" fill-rule="nonzero">
            <g id="编组-15" transform="translate(1228.000000, 342.000000)">
                <g id="编组-14" transform="translate(27.000000, 62.000000)">
                    <g id="medium" transform="translate(111.000000, 1.000000)">
                        <path d="M0.41250176,0.41250176 L0.41250176,21.5875264 L21.5875264,21.5875264 L21.5875264,0.41250176 L0.41250176,0.41250176 Z M18.0047879,5.42739041 L16.8704115,6.51450105 C16.7711536,6.59012614 16.7238879,6.7130169 16.7427942,6.8311811 L16.7427942,14.8332607 C16.7238879,14.9561515 16.7711536,15.0790423 16.8704115,15.1499408 L17.981155,16.2370514 L17.981155,16.4781064 L12.4038048,16.4781064 L12.4038048,16.2465046 L13.5523608,15.1310345 C13.6657984,15.0175969 13.6657984,14.9845109 13.6657984,14.8143545 L13.6657984,8.34368286 L10.4706385,16.4544736 L10.0405208,16.4544736 L6.32071176,8.34368286 L6.32071176,13.7792361 C6.28762578,14.0061113 6.36797744,14.2377132 6.52868075,14.403143 L8.02227624,16.2134186 L8.02227624,16.4544736 L3.77781818,16.4544736 L3.77781818,16.2134186 L5.27141366,14.403143 C5.43211698,14.2377132 5.5030155,14.0061113 5.46520295,13.7792361 L5.46520295,7.49290062 C5.48410922,7.31801761 5.41793727,7.14786116 5.28559337,7.02969696 L3.95742776,5.42739041 L3.95742776,5.18633544 L8.08372162,5.18633544 L11.2694285,12.1816561 L14.0722833,5.19106201 L18.0047879,5.19106201 L18.0047879,5.42739041 L18.0047879,5.42739041 Z" id="形状"></path>
                    </g>
                </g>
            </g>
        </g>
    </g>
</svg>