<?xml version="1.0" encoding="UTF-8"?>
<svg width="26px" height="26px" viewBox="0 0 26 26" version="1.1" xmlns="http://www.w3.org/2000/svg" xmlns:xlink="http://www.w3.org/1999/xlink">
    <!-- Generator: Sketch 60 (88103) - https://sketch.com -->
    <title>icon/等待</title>
    <desc>Created with Sketch.</desc>
    <g id="icon/等待" stroke="none" stroke-width="1" fill="none" fill-rule="evenodd">
        <g id="icon/对" fill="#FFB600" fill-rule="nonzero">
            <path d="M13,0 C20.1806138,0 26,5.81938616 26,13 C26,20.1806138 20.1777411,26 13,26 C5.82225893,26 0,20.1777411 0,13 C0,5.82225893 5.81938616,0 13,0 Z M13,1.85714286 C6.84519643,1.85714286 1.85714286,6.84766295 1.85714286,13 C1.85714286,19.1523371 6.84766295,24.1428571 13,24.1428571 C19.1523371,24.1428571 24.1428571,19.1548036 24.1428571,13 C24.1428571,6.84519643 19.1548036,1.85714286 13,1.85714286 Z" id="形状"></path>
        </g>
        <path d="M11,8 L14,8 L14,13 L17,13 L17,16 L11,16 L11,8 Z" id="形状结合" fill="#FFB600"></path>
    </g>
</svg>