<?xml version="1.0" encoding="UTF-8"?>
<svg width="18px" height="23px" viewBox="0 0 18 23" version="1.1" xmlns="http://www.w3.org/2000/svg" xmlns:xlink="http://www.w3.org/1999/xlink">
    <title>编组</title>
    <g id="页面" stroke="none" stroke-width="1" fill="none" fill-rule="evenodd">
        <g id="首页" transform="translate(-1257.000000, -1524.000000)" fill="#97959D" fill-rule="nonzero">
            <g id="编组-9" transform="translate(0.000000, 1394.000000)">
                <g id="编组" transform="translate(1257.000000, 130.000000)">
                    <path d="M3.20978481,22.5744571 C1.4469954,22.5744571 0.0177628394,21.1799247 0.0177628394,19.4595222 L0.0177628394,13.5228987 C0.00624134004,13.4152583 4.10374109e-06,13.3057748 4.10374109e-06,13.1950011 C-0.000180479349,13.0821999 0.00586358591,12.9708732 0.0177628394,12.8610211 L0.0177628394,3.78568594 C0.0177628394,2.06528345 1.4469954,0.670566749 3.20978481,0.670566749 L9.63254855,0.670566749 C14.0484937,0.670566749 17.6411239,4.17643517 17.6411239,8.48573559 C17.6411239,12.5828887 14.3618407,16.0076582 10.1755701,16.2826572 C9.99764784,16.2946377 9.81424823,16.3007201 9.63254855,16.3007201 L6.40180678,16.3038535 L6.40180678,19.4595222 C6.40180678,21.1799247 4.9727631,22.5744571 3.20978481,22.5744571 Z" id="Fill-1-path" opacity="0.600000024"></path>
                    <path d="M5.84006758,1.99915098 C6.32944798,2.68056603 6.51738064,3.50740614 6.36930104,4.32632068 C6.22103257,5.14578816 5.75450628,5.85964276 5.05566123,6.33683604 C3.61282952,7.32200331 1.61696585,6.97899185 0.606662562,5.57211031 C0.117282152,4.89069527 -0.0706505028,4.06403948 0.0776179732,3.2447563 C0.225697572,2.42547314 0.69222386,1.71143422 1.39125779,1.23442526 C2.83408949,0.249257983 4.82976429,0.592269451 5.84006758,1.99915098 Z M14.4752047,22.5726692 C13.4692456,22.5726692 12.4795299,22.1100369 11.8583133,21.2450434 L7.34698526,14.9624594 C6.33535984,13.5535504 6.68572675,11.6110475 8.12931395,10.624037 C9.57290117,9.63628937 11.5634763,9.97837919 12.5751018,11.3872883 L17.0864298,17.6698723 C18.0982441,19.0787813 17.7478772,21.0212842 16.30429,22.0082946 C15.746725,22.3896438 15.1077539,22.5726692 14.4752047,22.5726692 Z" id="Combined-Shape"></path>
                </g>
            </g>
        </g>
    </g>
</svg>