<?xml version="1.0" encoding="UTF-8"?>
<svg width="18px" height="22px" viewBox="0 0 18 22" version="1.1" xmlns="http://www.w3.org/2000/svg" xmlns:xlink="http://www.w3.org/1999/xlink">
    <title>编组</title>
    <g id="页面" stroke="none" stroke-width="1" fill="none" fill-rule="evenodd">
        <g id="底栏悬浮" transform="translate(-1294.000000, -405.000000)" fill="#302B3C" fill-rule="nonzero">
            <g id="编组-15" transform="translate(1228.000000, 342.000000)">
                <g id="编组-14" transform="translate(27.000000, 62.000000)">
                    <g id="编组" transform="translate(39.000000, 1.000000)">
                        <path d="M3.20978481,21.9038903 C1.4469954,21.9038903 0.0177628394,20.5093579 0.0177628394,18.7889554 L0.0177628394,12.8523319 C0.00624134004,12.7446915 4.10374108e-06,12.635208 4.10374108e-06,12.5244343 C-0.000180479349,12.4116331 0.00586358591,12.3003065 0.0177628394,12.1904544 L0.0177628394,3.11511919 C0.0177628394,1.3947167 1.4469954,0 3.20978481,0 L9.63254855,0 C14.0484937,0 17.6411239,3.50586842 17.6411239,7.81516884 C17.6411239,11.912322 14.3618407,15.3370915 10.1755701,15.6120905 C9.99764784,15.624071 9.81424823,15.6301534 9.63254855,15.6301534 L6.40180678,15.6332868 L6.40180678,18.7889554 C6.40180678,20.5093579 4.9727631,21.9038903 3.20978481,21.9038903 Z" id="Fill-1-path" opacity="0.600000024"></path>
                        <path d="M5.84006758,1.32858424 C6.32944798,2.00999928 6.51738064,2.83683939 6.36930104,3.65575393 C6.22103257,4.47522141 5.75450628,5.18907601 5.05566123,5.66626929 C3.61282952,6.65143656 1.61696585,6.3084251 0.606662562,4.90154356 C0.117282152,4.22012852 -0.0706505028,3.39347273 0.0776179732,2.57418955 C0.225697572,1.75490639 0.69222386,1.04086747 1.39125779,0.563858508 C2.83408949,-0.421308766 4.82976429,-0.078297298 5.84006758,1.32858424 Z M14.4752047,21.9021025 C13.4692456,21.9021025 12.4795299,21.4394701 11.8583133,20.5744766 L7.34698526,14.2918926 C6.33535984,12.8829836 6.68572675,10.9404807 8.12931395,9.95347025 C9.57290117,8.96572262 11.5634763,9.30781245 12.5751018,10.7167215 L17.0864298,16.9993055 C18.0982441,18.4082145 17.7478772,20.3507174 16.30429,21.3377279 C15.746725,21.719077 15.1077539,21.9021025 14.4752047,21.9021025 Z" id="Combined-Shape"></path>
                    </g>
                </g>
            </g>
        </g>
    </g>
</svg>