<?xml version="1.0" encoding="UTF-8"?>
<svg width="30px" height="30px" viewBox="0 0 30 30" version="1.1" xmlns="http://www.w3.org/2000/svg" xmlns:xlink="http://www.w3.org/1999/xlink">
    <!-- Generator: Sketch 60 (88103) - https://sketch.com -->
    <title>icon/waiting</title>
    <desc>Created with Sketch.</desc>
    <g id="icon/waiting" stroke="none" stroke-width="1" fill="none" fill-rule="evenodd">
        <path d="M20,9 L20,10.8823529 C20,12.9639943 18.7279107,14.7485233 16.918698,15.500974 C18.7279107,16.2514767 20,18.0360057 20,20.1176471 L20,20.1176471 L20,22 L10,22 L10,20.1176471 C10,18.0360057 11.2720893,16.2514767 13.081302,15.499026 C11.2720893,14.7485233 10,12.9639943 10,10.8823529 L10,9 L20,9 Z" id="形状结合" stroke="#302B3C" fill="#FFFFFF" stroke-linejoin="bevel"></path>
        <circle id="椭圆形" stroke="#302B3C" fill="#302B3C" stroke-linejoin="round" cx="15" cy="14" r="1"></circle>
        <rect id="矩形" stroke="#302B3C" fill="#302B3C" stroke-linejoin="round" x="9" y="8" width="12" height="1"></rect>
        <rect id="矩形" stroke="#302B3C" fill="#302B3C" stroke-linejoin="round" x="9" y="22" width="12" height="1"></rect>
        <rect id="矩形" stroke="#302B3C" fill="#302B3C" stroke-linejoin="round" x="14" y="16" width="2" height="3" rx="1"></rect>
        <rect id="矩形" stroke="#302B3C" fill="#302B3C" stroke-linejoin="round" x="12" y="21" width="6" height="1"></rect>
    </g>
</svg>