<?xml version="1.0" encoding="UTF-8"?>
<svg width="30px" height="30px" viewBox="0 0 30 30" version="1.1" xmlns="http://www.w3.org/2000/svg" xmlns:xlink="http://www.w3.org/1999/xlink">
    <!-- Generator: Sketch 60 (88103) - https://sketch.com -->
    <title>icon/stretch</title>
    <desc>Created with Sketch.</desc>
    <g id="icon/stretch" stroke="none" stroke-width="1" fill="none" fill-rule="evenodd">
        <path d="M19.4362049,18.5369231 L23,22.0965181 L22.095452,23 L18.530637,19.4393663 C17.3116271,20.4520131 15.7448172,21.0609995 14.0356954,21.0609995 C10.1499789,21.0609995 7,17.9133347 7,14.0304998 C7,10.1476648 10.1499789,7 14.0356954,7 C17.921392,7 21.0713709,10.1476648 21.0713709,14.0304998 C21.0713709,15.7452977 20.4570062,17.3167131 19.4362049,18.5369231 Z M14.0356954,19.7827214 C17.2149126,19.7827214 19.7921645,17.2073684 19.7921645,14.0304998 C19.7921645,10.8536311 17.2149126,8.27827813 14.0356954,8.27827813 C10.8564783,8.27827813 8.27922644,10.8536311 8.27922644,14.0304998 C8.27922644,17.2073684 10.8564783,19.7827214 14.0356954,19.7827214 Z" id="形状" fill="#FFFFFF" fill-rule="nonzero"></path>
    </g>
</svg>
