<?xml version="1.0" encoding="UTF-8"?>
<svg width="24px" height="24px" viewBox="0 0 24 24" version="1.1" xmlns="http://www.w3.org/2000/svg" xmlns:xlink="http://www.w3.org/1999/xlink">
    <title>形状</title>
    <g id="页面" stroke="none" stroke-width="1" fill="none" fill-rule="evenodd">
        <g id="首页" transform="translate(-1218.000000, -1524.000000)" fill="#97959D" fill-rule="nonzero">
            <g id="编组-9" transform="translate(0.000000, 1394.000000)">
                <path d="M1230,130 C1223.37211,130 1218,135.372114 1218,142 C1218,148.627886 1223.37211,154 1230,154 C1236.62789,154 1242,148.627886 1242,142 C1242,135.372114 1236.62789,130 1230,130 Z M1236.10335,139.700384 C1236.03561,144.822408 1232.75989,148.330878 1227.87062,148.551439 C1225.85412,148.643493 1224.39342,147.992169 1223.12202,147.184526 C1224.61226,147.422477 1226.46028,146.826731 1227.44855,145.980879 C1225.98785,145.838456 1225.12289,145.095077 1224.71819,143.898378 C1225.14025,143.971327 1225.58489,143.952221 1225.9861,143.867115 C1224.66782,143.425952 1223.72644,142.61136 1223.67781,140.904026 C1224.04776,141.072502 1224.43334,141.230556 1224.94572,141.261821 C1223.95918,140.700815 1223.2297,138.649575 1224.06513,137.293076 C1225.52931,138.897938 1227.2905,140.20753 1230.18236,140.384704 C1229.45636,137.280935 1233.56926,135.597899 1235.29048,137.68387 C1236.01823,137.543184 1236.6105,137.267022 1237.18019,136.966546 C1236.94571,137.687346 1236.49413,138.191035 1235.94354,138.59399 C1236.54797,138.512357 1237.08293,138.364723 1237.53972,138.13893 C1237.25661,138.727727 1236.63655,139.255733 1236.10333,139.700372 L1236.10335,139.700384 Z" id="形状"></path>
            </g>
        </g>
    </g>
</svg>