<?xml version="1.0" encoding="UTF-8"?>
<svg width="24px" height="24px" viewBox="0 0 24 24" version="1.1" xmlns="http://www.w3.org/2000/svg" xmlns:xlink="http://www.w3.org/1999/xlink">
    <title>twitter</title>
    <g id="页面" stroke="none" stroke-width="1" fill="none" fill-rule="evenodd">
        <g id="底栏悬浮" transform="translate(-1255.000000, -404.000000)">
            <g id="编组-15" transform="translate(1228.000000, 342.000000)">
                <g id="编组-14" transform="translate(27.000000, 62.000000)">
                    <g id="twitter">
                        <g id="编组"></g>
                        <path d="M12.0028499,0.372480902 C5.49019389,0.372480902 0.211476809,5.65119798 0.211476809,12.163854 C0.211476809,18.67651 5.49019389,23.9552271 12.0028499,23.9552271 C18.5155059,23.9552271 23.794223,18.67651 23.794223,12.163854 C23.794223,5.65119798 18.5155059,0.372480902 12.0028499,0.372480902 Z M18.0000913,9.90421856 C17.9335313,14.9371932 14.7147593,18.3846659 9.91048809,18.6013927 C7.92904673,18.6918461 6.49374193,18.051846 5.24445142,17.2582443 C6.70877421,17.492058 8.52467398,16.9066697 9.49576105,16.0755234 C8.06045157,15.9355765 7.21053183,15.2051216 6.8128673,14.029228 C7.22758732,14.1009082 7.66449564,14.0821347 8.05873594,13.998508 C6.76337428,13.5650145 5.8383607,12.7645855 5.79057393,11.0869343 C6.15409466,11.2524811 6.53297401,11.407787 7.03644256,11.4385089 C6.06705472,10.887256 5.3502531,8.87167782 6.17116187,7.53876221 C7.60988386,9.11572342 9.34045462,10.4025468 12.1820439,10.5766407 C11.4686571,7.52683251 15.5100555,5.87305715 17.2013544,7.92276266 C17.9164474,7.7845225 18.4984223,7.5131614 19.0582089,7.21790949 C18.8278086,7.9261775 18.3840753,8.42111011 17.8430598,8.81705901 C18.4369808,8.73684548 18.9626353,8.59177867 19.4114874,8.36991083 C19.1333004,8.94847088 18.5240208,9.46729805 18.0000725,9.90420637 L18.0000913,9.90421856 Z" id="形状" fill="#302B3C" fill-rule="nonzero"></path>
                    </g>
                </g>
            </g>
        </g>
    </g>
</svg>