<svg fill="none" height="64" viewBox="0 0 64 64" width="64" xmlns="http://www.w3.org/2000/svg" xmlns:xlink="http://www.w3.org/1999/xlink"><linearGradient id="a" gradientUnits="userSpaceOnUse" x1="79.5094" x2="-3.3541" y1="73.6261" y2="16.1548"><stop offset=".01" stop-color="#645aff"/><stop offset=".5" stop-color="#e40c5b"/><stop offset="1" stop-color="#ff4c3b"/></linearGradient><clipPath id="b"><rect height="64" rx="32" width="64"/></clipPath><g clip-path="url(#b)"><rect fill="url(#a)" height="64" rx="32" width="64"/><path d="m32 64c17.6731 0 32-14.3269 32-32s-14.3269-32-32-32-32 14.3269-32 32 14.3269 32 32 32z" fill="url(#a)"/><g fill="#fff"><path d="m26.1469 40.5796v7.0193c0 .7953-.1696 1.4852-.5086 2.0695-.339.5795-.8254 1.0215-1.4592 1.3259s-1.3832.4565-2.2479.4565c-1.3071 0-2.3364-.3387-3.0881-1.0163-.7517-.6777-1.135-1.6057-1.1497-2.7842v-7.0707h2.6016v7.1223c.0294 1.1736.5749 1.7602 1.6362 1.7602.5355 0 .9408-.1472 1.216-.4418s.4128-.7733.4128-1.4363v-7.0044z"/><path d="m33.3036 48.4533c0-.378-.135-.6727-.4053-.8839-.2654-.2109-.7345-.4296-1.4078-.6553-.6731-.2259-1.2233-.4444-1.6508-.6556-1.3905-.6824-2.0857-1.6205-2.0857-2.8136 0-.5942.1719-1.1171.5158-1.5689.349-.4565.8403-.81 1.4741-1.0605.6338-.2553 1.3462-.3831 2.1372-.3831.7714 0 1.4618.1376 2.071.4126.6142.2749 1.0908.6677 1.4298 1.1784.3392.5058.5086 1.0852.5086 1.7383h-2.5794c0-.4372-.1353-.7759-.4054-1.0166-.2653-.2406-.6265-.3607-1.0835-.3607-.4618 0-.8279.103-1.098.3093-.2654.2012-.3981.4591-.3981.7733 0 .275.1474.5255.4423.7512.2948.221.8132.4518 1.5549.6925.742.2357 1.3513.4908 1.8279.7658 1.1594.668 1.7393 1.5885 1.7393 2.7621 0 .938-.3537 1.6744-1.0613 2.2097-.7075.5352-1.6779.8027-2.9112.8027-.8695 0-1.6582-.1546-2.3656-.464-.7028-.3142-1.2333-.7413-1.5922-1.2815-.3537-.545-.5305-1.1712-.5305-1.8781h2.5943c0 .5745.1474.9992.4421 1.2742.2997.2701.7837.4051 1.4519.4051.4275 0 .7642-.0909 1.0097-.2726.2507-.1865.3759-.4467.3759-.7808z"/><path d="m37.2168 51.3036v-10.724h3.4564c.9483 0 1.8008.2161 2.5575.6481.7567.4273 1.3463 1.0336 1.7689 1.8193.4273.7808.6437 1.6572.6486 2.6293v.4937c0 .982-.2089 1.8635-.6266 2.644-.4126.7759-.9973 1.3848-1.754 1.8268-.7518.4369-1.5919.6579-2.5206.6628zm2.5869-8.7281v6.7394h.8992c.7417 0 1.3118-.2626 1.7098-.788.3979-.5303.597-1.3161.597-2.3569v-.464c0-1.0362-.1991-1.817-.597-2.3424-.398-.5252-.9779-.7881-1.7395-.7881z"/><path clip-rule="evenodd" d="m31.7202 28.258c-1.0619-.0011-2.122.0874-3.169.2647l1.5776-2.7277c.5318-.0358 1.0637-.0537 1.5914-.0537 1.241.0008 2.4798.0998 3.7052.2965l-6.1069-10.5853-10.1715 17.6251-1.4536-2.5195 11.6017-20.1115.0234.0414.0235-.04 14.0021 24.2705h-2.9073l-3.2725-5.6716c-1.7662-.5297-3.6004-.796-5.4441-.7902zm12.5236 4.861-13.5557-23.49839h2.9073l12.102 20.97889zm-13.4537-11.9036-5.5665 9.6531c1.9923-.6014 4.336-.8702 6.5476-.8702.1792 0 .3582 0 .5374.0069 1.2557.0298 2.5071.1597 3.7423.3889l1.8575 3.22c-1.9654-.7245-4.0427-1.098-6.1372-1.1033-3.0517-.0107-6.058.74-8.7469 2.1845l.0414-.0732-.0565.0964h-2.9073l9.2442-16.0226z" fill-rule="evenodd"/></g></g></svg>