<svg fill="none" height="64" viewBox="0 0 64 64" width="64" xmlns="http://www.w3.org/2000/svg" xmlns:xlink="http://www.w3.org/1999/xlink"><clipPath id="a"><rect height="64" rx="32" width="64"/></clipPath><g clip-path="url(#a)"><rect fill="#fff" height="64" rx="32" width="64"/><path d="m32 64c17.6731 0 32-14.3269 32-32s-14.3269-32-32-32-32 14.3269-32 32 14.3269 32 32 32z" fill="#512dbc"/><path clip-rule="evenodd" d="m49.2085 20.2879c1.1122 0 2.0138.9022 2.0138 2.0151 0 1.0896-.8641 1.9772-1.944 2.014l-2.4605 3.693-.027.0398c-.5632.8171-1.4924 1.3063-2.4864 1.3063l-2.9823-.0001c.2794.6398.4943 1.3143.6365 2.0152h6.3412l.0325-.0005c.3243-.0105.6246-.1769.8053-.4482l2.3692-3.556c-.1807-.3021-.2845-.6555-.2845-1.0332 0-1.1129.9016-2.0151 2.0139-2.0151 1.1122 0 2.0138.9022 2.0138 2.0151 0 1.1006-.8817 1.9951-1.9768 2.0149l-2.46 3.6921-.0269.0398c-.5633.8171-1.4925 1.3063-2.4865 1.3063h-6.1398c0 .6901-.0693 1.3641-.2014 2.0153l6.3412-.0002c.994 0 1.9232.4892 2.4865 1.3062l.0269.0398 2.46 3.6922c1.0951.0198 1.9768.9143 1.9768 2.0148 0 1.113-.9016 2.0152-2.0138 2.0152-1.1123 0-2.0139-.9022-2.0139-2.0152 0-.3776.1038-.731.2845-1.0331l-2.3692-3.5561c-.1807-.2712-.481-.4377-.8053-.4481l-.0325-.0005-6.9777.0001c-.3141.7195-.7098 1.3951-1.1753 2.0152l4.1253-.0002c.994 0 1.9232.4892 2.4865 1.3062l.0269.0398 2.46 3.6922c1.0951.0198 1.9768.9143 1.9768 2.0148 0 1.113-.9016 2.0152-2.0138 2.0152s-2.0139-.9022-2.0139-2.0152c0-.3776.1038-.731.2845-1.0331l-2.3692-3.5561c-.1807-.2712-.481-.4377-.8053-.4481l-.0325-.0005-6.1391.0002c-1.683 1.2652-3.7751 2.0149-6.0422 2.0149s-4.3592-.7497-6.0422-2.0149l-6.0707-.0002-.0325.0005c-.3243.0104-.6246.1769-.8053.4481l-2.3691 3.5562c.1806.3021.2844.6554.2844 1.033 0 1.113-.9017 2.0152-2.0139 2.0152s-2.0138-.9022-2.0138-2.0152c0-1.1006.8817-1.9951 1.9769-2.0148l2.4599-3.6922.0269-.0398c.5633-.817 1.4925-1.3062 2.4865-1.3062l4.0569.0002c-.4655-.6201-.8612-1.2957-1.1753-2.0152l-6.9093-.0001-.0325.0005c-.3243.0104-.6246.1769-.8053.4481l-2.3691 3.5562c.1806.3021.2844.6554.2844 1.033 0 1.113-.9016 2.0152-2.0139 2.0152-1.11217 0-2.0138-.9022-2.0138-2.0152 0-1.1006.88175-1.9951 1.9769-2.0148l2.4599-3.6922.0269-.0398c.5633-.817 1.4925-1.3062 2.4865-1.3062l6.2728.0002c-.1321-.6512-.2014-1.3252-.2014-2.0153h-6.0714c-.994 0-1.9232-.4892-2.4865-1.3063l-.0269-.0398-2.4599-3.6921c-1.09515-.0197-1.9769-.9143-1.9769-2.0149 0-1.1129.90163-2.0151 2.0138-2.0151 1.1123 0 2.0139.9022 2.0139 2.0151 0 .3776-.1038.731-.2844 1.0331l2.3691 3.5561c.1807.2713.481.4377.8053.4482l.0325.0005h6.2728c.1422-.7009.3571-1.3754.6365-2.0153l-2.9139.0002c-.994 0-1.9232-.4892-2.4864-1.3063l-.027-.0398-2.4605-3.693c-1.0799-.0368-1.944-.9244-1.944-2.014 0-1.1129.9016-2.0151 2.0138-2.0151s2.0139.9022 2.0139 2.0151c0 .3883-.1097.7509-.2999 1.0585l2.3523 3.5307c.1807.2713.481.4377.8053.4482l.0325.0005 4.0892-.0002c1.8371-2.4472 4.7618-4.0301 8.056-4.0301s6.2189 1.5829 8.056 4.0301l4.1576.0002.0325-.0005c.3243-.0105.6246-.1769.8053-.4482l2.3522-3.5307c-.1901-.3076-.2998-.6702-.2998-1.0585 0-1.1129.9017-2.0151 2.0139-2.0151zm-17.1177 5.0379c-4.4489 0-8.0554 3.6088-8.0554 8.0606 0 4.4517 3.6065 8.0606 8.0554 8.0606s8.0554-3.6089 8.0554-8.0606c0-4.4518-3.6065-8.0606-8.0554-8.0606zm0 2.0151c3.3366 0 6.0415 2.7067 6.0415 6.0455s-2.7049 6.0454-6.0415 6.0454c-3.3367 0-6.0415-2.7066-6.0415-6.0454s2.7048-6.0455 6.0415-6.0455zm7.0484-12.0909.0667.0005c2.1937.0356 3.961 1.8262 3.961 4.0298 0 2.2259-1.8032 4.0303-4.0277 4.0303-2.2244 0-4.0276-1.8044-4.0276-4.0303 0-1.1129.4508-2.1205 1.1796-2.8499l2.848 2.8499zm-14.0969 0v4.0303l2.2345-3.3537c1.0812.7227 1.7932 1.955 1.7932 3.3537 0 2.2259-1.8032 4.0303-4.0277 4.0303-2.2244 0-4.0277-1.8044-4.0277-4.0303s1.8033-4.0303 4.0277-4.0303z" fill="#fff" fill-rule="evenodd"/></g></svg>