<svg fill="none" height="64" viewBox="0 0 64 64" width="64" xmlns="http://www.w3.org/2000/svg"><rect fill="#e6007a" height="64" rx="32" width="64"/><path clip-rule="evenodd" d="m40.1154 14.2195c0 2.6066-3.6331 4.7196-8.1148 4.7196s-8.1148-2.113-8.1148-4.7196c0-2.6065 3.6331-4.7195 8.1148-4.7195s8.1148 2.113 8.1148 4.7195zm0 35.561c0 2.6065-3.6331 4.7195-8.1148 4.7195s-8.1148-2.113-8.1148-4.7195c0-2.6066 3.6331-4.7196 8.1148-4.7196s8.1148 2.113 8.1148 4.7196zm-19.4236-24.3084c2.2408-3.8812 2.2263-8.0847-.0325-9.3888-2.2588-1.3042-5.9065.7849-8.1473 4.666-2.2409 3.8812-2.2263 8.0847.0325 9.3888 2.2588 1.3042 5.9064-.7849 8.1473-4.666zm30.7639 8.3911c2.2573 1.3033 2.2706 5.5061.0297 9.3872-2.2408 3.8811-5.8872 5.9709-8.1445 4.6676-2.2573-1.3032-2.2706-5.506-.0297-9.3872 2.2408-3.8811 5.8873-5.9709 8.1445-4.6676zm-30.795 14.0538c2.2588-1.3042 2.2733-5.5077.0325-9.3888-2.2409-3.8812-5.8885-5.9702-8.1473-4.6661-2.2588 1.3042-2.2734 5.5077-.0325 9.3888 2.2408 3.8811 5.8885 5.9702 8.1473 4.6661zm30.8266-27.1651c2.2408 3.8812 2.2275 8.084-.0297 9.3872-2.2573 1.3033-5.9037-.7865-8.1445-4.6676-2.2409-3.8811-2.2276-8.0839.0297-9.3872 2.2572-1.3033 5.9037.7865 8.1445 4.6676z" fill="#fff" fill-rule="evenodd"/></svg>