<svg fill="none" height="64" viewBox="0 0 64 64" width="64" xmlns="http://www.w3.org/2000/svg" xmlns:xlink="http://www.w3.org/1999/xlink"><linearGradient id="a" gradientUnits="userSpaceOnUse" x1="67.0566" x2="135.044" y1="195.2" y2="159.008"><stop offset="0" stop-color="#ff4c3b"/><stop offset="1" stop-color="#e40c5b"/></linearGradient><rect fill="url(#a)" height="64" rx="32" width="64"/><path clip-rule="evenodd" d="m28.9687 25.1161 10.4933-9.5316h8.4115l-13.7966 12.71 13.7966 18.9521h-7.0585l-6.3838-8.8197s1.1439 3.708 1.3363 5.4828c.2394 2.1999-.0405 3.9779-.7391 5.7527.7386-4.9435-1.6502-8.8769-3.4743-11.8806-1.0593-1.7444-1.9282-3.1751-1.8837-4.3081.1519-3.8092 2.8782-6.4681 4.8857-8.0877 0 0-1.2584-1.2178-3.2223-.3879-1.9636.8368-2.7058 1.8423-2.7058 1.8423s-1.289-.0777-2.6488.8638c-.9499.657-2.2808 2.6449-3.5424 4.5294-.5396.8059-1.0665 1.593-1.5456 2.249-1.5116 2.0716-2.3079 1.4069-2.3956 1.3327.054.1922.7524 2.318 3.5495.3273 0 0 .8605 1.1404-.7188 2.6485 0 0 2.2203-.1147 2.3248-2.2402 0 0 .4993.8062.6209 3.9071.054 1.3563-.2261 3.3436-.7861 4.3491-.0041.0042-.007.0094-.0101.0152-.002.0038-.0042.0078-.0069.0118-.8434 1.5015-2.4528 2.4158-4.177 2.4158h-3.0839v-31.6654h5.6549l.0101 11.0803 3.1277-.0067c1.4679-.0068 2.8815-.5533 3.968-1.542zm-2.6406 4.9024s0-.2301.453-.9816c.5303-.8783 1.4961-1.1518 1.5584-1.1694.0022-.0006.0033-.0009.0032-.0009-.4291 1.8842-2.0146 2.1519-2.0146 2.1519z" fill="#fff" fill-rule="evenodd"/></svg>