<svg fill="none" height="64" viewBox="0 0 64 64" width="64" xmlns="http://www.w3.org/2000/svg"><rect fill="#1b2026" height="64" rx="32" width="64"/><path d="m51.4159 20.3916c-.6594-.5014-1.4537-1.1901-2.8871-1.37-1.3532-.17-2.7241.7022-3.6534 1.2813-.9293.5778-2.6872 2.2805-3.4179 2.7942-.7294.5138-2.5879.9955-5.5743 2.7302s-14.7333 9.0233-14.7333 9.0233l3.0526.032-13.6055 6.8082h1.3608l-1.9578 1.4452s1.7249.4496 3.185-.4497l.005.4065s16.2125-6.1847 19.3542-4.5794l-1.9056.5446c.1655 0 3.2524.1934 3.2524.1934s.0993 1.8628 1.9578 3.0505c1.8585 1.1876 1.8916 1.8308 1.8916 1.8308s-.9623.3856-.9623.8673c0 0 1.427-.4177 2.7547-.3856 1.3277.032 2.4886.3856 2.4886.3856s-.0993-.5138-1.3939-.8673c-1.2933-.3524-2.5548-1.7015-3.1862-2.4407-.6301-.7392-1.054-2.055-.527-3.372.4481-1.1175 1.9985-1.7359 5.2051-3.34 3.7845-1.8912 4.6463-3.308 5.1772-4.3996.5308-1.0916 1.3277-3.2759 1.7668-4.3034.5627-1.3171 1.2526-2.023 1.8166-2.4407.5639-.4176 3.12-1.349 3.12-1.349s-1.9489-1.614-2.5841-2.0957z" fill="#fff"/></svg>