<svg fill="none" height="64" viewBox="0 0 64 64" width="64" xmlns="http://www.w3.org/2000/svg" xmlns:xlink="http://www.w3.org/1999/xlink"><clipPath id="a"><rect height="64" rx="32" width="64"/></clipPath><g clip-path="url(#a)"><rect fill="#f0f2f5" height="64" rx="32" width="64"/><path d="m32 0c17.6723 0 32 14.3277 32 32s-14.3283 32-32 32-32-14.3238-32-32 14.3258-32 32-32z" fill="#26a17b"/><path d="m35.9493 27.7363v-4.7603h10.8858v-7.2531h-29.6422v7.2531h10.887v4.7565c-8.848.4064-15.5008 2.1587-15.5008 4.2579s6.656 3.8515 15.5008 4.2605v15.248h7.872v-15.2493c8.832-.4077 15.4714-2.1587 15.4714-4.256s-6.6394-3.8483-15.4714-4.256zm.0026 7.2218v-.0038c-.2221.014-1.3632.0825-3.904.0825-2.0314 0-3.4605-.0576-3.9642-.0838v.0064c-7.8169-.3463-13.6518-1.7075-13.6518-3.3363s5.8355-2.9882 13.6518-3.3351v5.3152c.512.0352 1.9764.1216 3.9975.1216 2.4275 0 3.648-.1011 3.872-.1216v-5.3152c7.8016.3475 13.623 1.7101 13.623 3.3331 0 1.6231-5.824 2.9863-13.623 3.3338" fill="#fff"/></g></svg>