<svg fill="none" height="64" viewBox="0 0 64 64" width="64" xmlns="http://www.w3.org/2000/svg" xmlns:xlink="http://www.w3.org/1999/xlink"><linearGradient id="a"><stop offset="0" stop-color="#7aedcf"/><stop offset=".201333" stop-color="#68cefa"/><stop offset=".403244" stop-color="#689cf8"/><stop offset=".602076" stop-color="#ac57c0"/><stop offset=".801867" stop-color="#e65659"/><stop offset="1" stop-color="#f2c241"/></linearGradient><linearGradient id="b" gradientUnits="userSpaceOnUse" x1="32.0001" x2="32.0001" xlink:href="#a" y1="19" y2="44"/><linearGradient id="c" gradientUnits="userSpaceOnUse" x1="32.0001" x2="32.0001" xlink:href="#a" y1="0" y2="64"/><linearGradient id="d" gradientUnits="userSpaceOnUse" x1="54" x2="54" xlink:href="#a" y1="44" y2="64"/><clipPath id="e"><path d="m0 0h64v64h-64z"/></clipPath><mask id="f" fill="#000" height="24" maskUnits="userSpaceOnUse" width="24" x="42" y="42"><path d="m42 42h24v24h-24z" fill="#fff"/><path d="m64 54c0 5.5228-4.4772 10-10 10s-10-4.4772-10-10 4.4772-10 10-10 10 4.4772 10 10z" fill="#000"/></mask><g clip-path="url(#e)"><rect fill="#fff" height="64" rx="32" width="64"/><path d="m49 19h-8.5l-25.5 25h17.0001z" fill="url(#b)"/><circle cx="32" cy="32" r="30" stroke="url(#c)" stroke-width="4"/><path d="m64 54c0 5.5228-4.4772 10-10 10s-10-4.4772-10-10 4.4772-10 10-10 10 4.4772 10 10z" fill="url(#d)"/><g fill="#fff"><path d="m62 54c0 4.4183-3.5817 8-8 8v4c6.6274 0 12-5.3726 12-12zm-8 8c-4.4183 0-8-3.5817-8-8h-4c0 6.6274 5.3726 12 12 12zm-8-8c0-4.4183 3.5817-8 8-8v-4c-6.6274 0-12 5.3726-12 12zm8-8c4.4183 0 8 3.5817 8 8h4c0-6.6274-5.3726-12-12-12z" mask="url(#f)"/><path d="m53.5842 58.376-4.0658-6.0986c-.2215-.3323.0167-.7774.416-.7774h1.8078c.1618 0 .3137.0783.4075.2102l1.443 2.0293c.1993.2803.6156.2803.815 0l1.443-2.0293c.0938-.1319.2456-.2102.4075-.2102h1.8077c.3994 0 .6376.4451.416.7773l-4.0657 6.0987c-.1979.2968-.6341.2968-.832 0z"/></g></g></svg>