<svg fill="none" height="64" viewBox="0 0 64 64" width="64" xmlns="http://www.w3.org/2000/svg" xmlns:xlink="http://www.w3.org/1999/xlink"><linearGradient id="a" gradientUnits="userSpaceOnUse" x1="13.2143" x2="59.5068" y1="17" y2="69.6313"><stop offset="0" stop-color="#ff8fb8"/><stop offset="1" stop-color="#ff4b8c"/></linearGradient><linearGradient id="b"><stop offset="0" stop-color="#fff"/><stop offset="1" stop-color="#fff" stop-opacity="0"/></linearGradient><linearGradient id="c" gradientUnits="userSpaceOnUse" x1="12" x2="28" xlink:href="#b" y1="15" y2="60.5"/><linearGradient id="d" gradientUnits="userSpaceOnUse" x1="-11" x2="101.87" xlink:href="#b" y1="20.9999" y2="38.4073"/><clipPath id="e"><rect height="64" rx="32" width="64"/></clipPath><mask id="f" fill="#000" height="50" maskUnits="userSpaceOnUse" width="42" x="11" y="18"><path d="m11 18h42v50h-42z" fill="#fff"/><path clip-rule="evenodd" d="m12 23c0-2.2091 1.7909-4 4-4h32c2.2091 0 4 1.7909 4 4v4c-2.2091 0-4 1.7909-4 4s1.7909 4 4 4v28c0 2.2091-1.7909 4-4 4h-32c-2.2091 0-4-1.7909-4-4v-28c2.2091 0 4-1.7909 4-4s-1.7909-4-4-4z" fill="#000" fill-rule="evenodd"/></mask><g clip-path="url(#e)"><rect fill="#ff007a" fill-opacity=".07" height="64" rx="32" width="64"/><path clip-rule="evenodd" d="m12 23c0-2.2091 1.7909-4 4-4h32c2.2091 0 4 1.7909 4 4v4c-2.2091 0-4 1.7909-4 4s1.7909 4 4 4v28c0 2.2091-1.7909 4-4 4h-32c-2.2091 0-4-1.7909-4-4v-28c2.2091 0 4-1.7909 4-4s-1.7909-4-4-4z" fill="url(#a)" fill-rule="evenodd"/><path d="m52 27v1h1v-1zm0 8h1v-1h-1zm-40 0v-1h-1v1zm0-8h-1v1h1zm4-9c-2.7614 0-5 2.2386-5 5h2c0-1.6569 1.3431-3 3-3zm32 0h-32v2h32zm5 5c0-2.7614-2.2386-5-5-5v2c1.6569 0 3 1.3431 3 3zm0 4v-4h-2v4zm-4 4c0-1.6569 1.3431-3 3-3v-2c-2.7614 0-5 2.2386-5 5zm3 3c-1.6569 0-3-1.3431-3-3h-2c0 2.7614 2.2386 5 5 5zm1 29v-28h-2v28zm-5 5c2.7614 0 5-2.2386 5-5h-2c0 1.6569-1.3431 3-3 3zm-32 0h32v-2h-32zm-5-5c0 2.7614 2.2386 5 5 5v-2c-1.6569 0-3-1.3431-3-3zm0-28v28h2v-28zm4-4c0 1.6569-1.3431 3-3 3v2c2.7614 0 5-2.2386 5-5zm-3-3c1.6569 0 3 1.3431 3 3h2c0-2.7614-2.2386-5-5-5zm-1-5v4h2v-4z" fill="url(#c)" mask="url(#f)"/><path clip-rule="evenodd" d="m18 32h-2v-2h2zm8 0h-4v-2h4zm8 0h-4v-2h4zm8 0h-4v-2h4zm6 0h-2v-2h2z" fill="url(#d)" fill-rule="evenodd"/><g fill="#fff"><rect height="5" opacity=".3" rx="2.5" width="26" x="19" y="41"/><rect height="5" opacity=".3" rx="2.5" width="16" x="19" y="50"/></g></g></svg>