<svg fill="none" height="66" viewBox="0 0 66 66" width="66" xmlns="http://www.w3.org/2000/svg" xmlns:xlink="http://www.w3.org/1999/xlink"><linearGradient id="a"><stop offset="0" stop-color="#7aedcf"/><stop offset=".201333" stop-color="#68cefa"/><stop offset=".403244" stop-color="#689cf8"/><stop offset=".602076" stop-color="#ac57c0"/><stop offset=".801867" stop-color="#e65659"/><stop offset="1" stop-color="#f2c241"/></linearGradient><linearGradient id="b" gradientUnits="userSpaceOnUse" x1="54" x2="54" xlink:href="#a" y1="44" y2="64"/><linearGradient id="c" gradientUnits="userSpaceOnUse" x1="32.0001" x2="32.0001" xlink:href="#a" y1="0" y2="64"/><mask id="d" fill="#000" height="24" maskUnits="userSpaceOnUse" width="24" x="42" y="42"><path d="m42 42h24v24h-24z" fill="#fff"/><path d="m64 54c0 5.5228-4.4772 10-10 10s-10-4.4772-10-10 4.4772-10 10-10 10 4.4772 10 10z" fill="#000"/></mask><rect fill="#fff" height="64" rx="32" width="64"/><path d="m51.4159 20.3916c-.6594-.5014-1.4537-1.1901-2.8871-1.37-1.3532-.17-2.7241.7022-3.6534 1.2813-.9293.5778-2.6872 2.2805-3.4179 2.7942-.7294.5138-2.5879.9955-5.5743 2.7302s-14.7333 9.0233-14.7333 9.0233l3.0526.032-13.6055 6.8082h1.3608l-1.9578 1.4452s1.7249.4496 3.185-.4497l.005.4065s16.2125-6.1847 19.3542-4.5794l-1.9056.5446c.1655 0 3.2524.1934 3.2524.1934s.0993 1.8628 1.9578 3.0505c1.8585 1.1876 1.8916 1.8308 1.8916 1.8308s-.9623.3856-.9623.8673c0 0 1.427-.4177 2.7547-.3856 1.3277.032 2.4886.3856 2.4886.3856s-.0993-.5138-1.3939-.8673c-1.2933-.3524-2.5548-1.7015-3.1862-2.4407-.6301-.7392-1.054-2.055-.527-3.372.4481-1.1175 1.9985-1.7359 5.2051-3.34 3.7845-1.8912 4.6463-3.308 5.1772-4.3996.5308-1.0916 1.3277-3.2759 1.7668-4.3034.5627-1.3171 1.2526-2.023 1.8166-2.4407.5639-.4176 3.12-1.349 3.12-1.349s-1.9489-1.614-2.5841-2.0957z" fill="#1b2026"/><path d="m64 54c0 5.5228-4.4772 10-10 10s-10-4.4772-10-10 4.4772-10 10-10 10 4.4772 10 10z" fill="url(#b)"/><path d="m62 54c0 4.4183-3.5817 8-8 8v4c6.6274 0 12-5.3726 12-12zm-8 8c-4.4183 0-8-3.5817-8-8h-4c0 6.6274 5.3726 12 12 12zm-8-8c0-4.4183 3.5817-8 8-8v-4c-6.6274 0-12 5.3726-12 12zm8-8c4.4183 0 8 3.5817 8 8h4c0-6.6274-5.3726-12-12-12z" fill="#fff" mask="url(#d)"/><path d="m54.2148 60.25c-.5989 0-1.1718-.0724-1.7187-.2172-.5469-.1449-1.0482-.3621-1.5039-.6518-.4557-.2896-.8529-.6406-1.1914-1.0528-.24-.3001-.444-.6338-.612-1.0011-.1159-.2533.0269-.5422.2909-.6311l1.5122-.5093c.2673-.0901.5525.0612.6734.3162.1864.3931.4438.7342.7722 1.0232.4557.3899 1.0547.5849 1.7969.5849.2734 0 .5338-.0279.7812-.0836.2604-.0668.4883-.156.6836-.2674.2083-.1225.3711-.2729.4883-.4512.1172-.1782.1758-.3843.1758-.6183 0-.2228-.0456-.4233-.1367-.6016-.0912-.1782-.2474-.3454-.4688-.5013-.2083-.156-.4883-.3064-.8398-.4512-.3386-.1449-.7618-.2953-1.2696-.4512l-.8593-.2674c-.3776-.1114-.7618-.2618-1.1524-.4512-.3776-.1894-.7226-.4178-1.0351-.6852s-.573-.5793-.7813-.9358c-.1953-.3677-.293-.7799-.293-1.2366 0-.468.1042-.9024.3125-1.3035.2214-.4122.5274-.7687.918-1.0695.4037-.312.8789-.5515 1.4258-.7186.5599-.1783 1.1784-.2674 1.8555-.2674.7031 0 1.3086.0836 1.8164.2507.5208.1559.957.362 1.3086.6183.3645.2451.6575.518.8789.8188.0987.1342.1858.265.2612.3925.1432.2422.0087.5383-.256.6335l-1.3829.4971c-.255.0917-.5333-.0417-.6957-.2587-.1273-.1701-.289-.3297-.4852-.4789-.3386-.2674-.8073-.4011-1.4063-.4011-.5729 0-1.0482.117-1.4258.3509-.3776.2228-.5664.5181-.5664.8857 0 .3565.1823.6629.5469.9191.3646.2451.944.4847 1.7383.7186l.8789.2507c.5599.1671 1.0677.3621 1.5234.5849.4688.2117.8659.4679 1.1914.7687.3386.3008.5925.6462.7618 1.0361.1823.3788.2734.8188.2734 1.3202 0 .6239-.1497 1.1642-.4492 1.621-.2865.4456-.6576.8133-1.1133 1.1029-.4557.2897-.9701.5069-1.543.6518-.5729.1448-1.1328.2172-1.6797.2172z" fill="#fff"/><path clip-rule="evenodd" d="m42.6493 57.9038c-3.2829 1.351-6.8791 2.0962-10.6493 2.0962-15.464 0-28-12.536-28-28s12.536-28 28-28 28 12.536 28 28c0 3.7702-.7452 7.3664-2.0962 10.6493 1.2899.4435 2.4804 1.1007 3.5292 1.9294 1.6523-3.8612 2.567-8.1131 2.567-12.5787 0-17.6731-14.3269-32-32-32s-32 14.3269-32 32 14.3269 32 32 32c4.4656 0 8.7175-.9147 12.5787-2.567-.8287-1.0488-1.4859-2.2393-1.9294-3.5292z" fill="url(#c)" fill-rule="evenodd"/></svg>