<svg fill="none" height="64" viewBox="0 0 64 64" width="64" xmlns="http://www.w3.org/2000/svg"><rect fill="#363f4d" height="64" rx="32" width="64"/><path d="m30.8267 14.3103c.7279-.4137 1.6219-.4137 2.3499 0l13.6499 7.8326c.7284.4147 1.1765 1.1862 1.1734 2.0203v15.6685c.0071.8283-.428 1.5983-1.1434 2.0236l-13.6665 7.8293c-.7262.4205-1.6239.4205-2.35 0l-13.6666-7.8293c-.7269-.4178-1.1742-1.1892-1.1733-2.0236v-15.6685c-.0059-.8314.4367-1.6023 1.16-2.0203zm-4.1135 7.9707-5.8644 3.3897c-.1716.0995-.2773.2825-.2773.4804v12.5055c-.0006.2239.1191.431.3137.543l10.7348 6.1869c.2589.1513.5797.1513.8387 0l5.5308-3.1725c.0655-.0384.1057-.1085.1057-.1843 0-.0757-.0402-.1458-.1057-.1842l-10.8107-6.2133c-.0891-.0526-.1413-.1503-.1354-.2534v-12.9102c.0005-.0785-.0416-.1512-.11-.1901-.0685-.0389-.1527-.0379-.2202.0025z" fill="#fff"/></svg>