<?xml version="1.0" encoding="UTF-8"?>
<svg width="26px" height="26px" viewBox="0 0 26 26" version="1.1" xmlns="http://www.w3.org/2000/svg" xmlns:xlink="http://www.w3.org/1999/xlink">
    <title>币/Crab</title>
    <defs>
        <linearGradient x1="100%" y1="91.8042029%" x2="0%" y2="8.19579715%" id="linearGradient-1">
            <stop stop-color="#FE3876" offset="0%"></stop>
            <stop stop-color="#7C30DD" offset="71.4447846%"></stop>
            <stop stop-color="#3A30DD" offset="100%"></stop>
        </linearGradient>
    </defs>
    <g id="币/Crab" stroke="none" stroke-width="1" fill="none" fill-rule="evenodd">
        <g id="Group-Copy-2" fill="url(#linearGradient-1)">
            <path d="M12.7107341,5.9408691 C8.31184057,5.92277325 4.42292486,8.1363897 2.06915412,11.4969224 C1.11600402,12.8573246 0.414494336,14.4092533 0.0328069148,16.0838094 C0.0110594793,15.7764555 0,15.4661312 0,15.15321 C0,8.01382808 5.75687252,2.22621551 12.8583149,2.22621551 C20.573989,2.22621551 26,7.58142024 26,14.1874001 C26,19.3308456 22.7106161,23.7160402 18.0947958,25.4056539 C16.9729869,25.7903534 15.8267838,25.9999985 14.6318755,25.9999985 C9.08131597,25.9999985 4.28610496,21.4763473 4.28610496,15.8961407 C4.28610496,14.9374581 4.41891311,14.0099602 4.96263542,13.1312279 C4.75859918,13.6732448 4.72949512,14.0754916 4.72949512,14.4845723 C4.72949512,19.1210675 8.61594468,22.7311033 13.2278067,22.7311033 C17.8396687,22.7311033 21.5783215,18.9724813 21.5783215,14.3359862 C21.5783215,10.4094905 18.8970193,7.11259146 15.2747697,6.19493971 C14.5364081,6.04651135 13.7815392,5.94438786 12.7107341,5.9408691 Z" id="Combined-Shape-Copy-34" transform="translate(12.999999, 14.113107) scale(-1, -1) translate(-12.999999, -14.113107) "></path>
            <path d="M12.7107341,3.71465358 C8.31184057,3.69655774 4.42292486,5.91017419 2.06915412,9.27070691 C1.11600402,10.6311091 0.414494336,12.1830378 0.0328069148,13.8575939 C0.0110594793,13.55024 0,13.2399157 0,12.9269945 C0,5.78761256 5.75687252,0 12.8583149,0 C20.573989,0 26,5.35520473 26,11.9611845 C26,17.1046301 22.7106161,21.4898246 18.0947958,23.1794384 C16.9729869,23.5641379 15.8267838,23.7737829 14.6318755,23.7737829 C9.08131597,23.7737829 4.28610496,19.2501317 4.28610496,13.6699252 C4.28610496,12.7112426 4.41891311,11.7837447 4.96263542,10.9050124 C4.75859918,11.4470293 4.72949512,11.8492761 4.72949512,12.2583568 C4.72949512,16.894852 8.61594468,20.5048878 13.2278067,20.5048878 C17.8396687,20.5048878 21.5783215,16.7462658 21.5783215,12.1097707 C21.5783215,8.18327498 18.8970193,4.88637595 15.2747697,3.9687242 C14.5364081,3.82029584 13.7815392,3.71817235 12.7107341,3.71465358 Z" id="Combined-Shape-Copy-41"></path>
        </g>
    </g>
</svg>