<svg height="26" viewBox="0 0 26 26" width="26" xmlns="http://www.w3.org/2000/svg" xmlns:xlink="http://www.w3.org/1999/xlink"><defs><linearGradient id="a" x1="0%" x2="100%" y1="50%" y2="50%"><stop offset="0" stop-color="#929297"/><stop offset=".780357361" stop-color="#88878d"/><stop offset="1" stop-color="#bab9c6"/></linearGradient><linearGradient id="b" x1="0%" x2="100%" y1="50%" y2="50%"><stop offset="0" stop-color="#919fb7"/><stop offset="1" stop-color="#f8fafe"/></linearGradient><path id="c" d="m19.6507072 21.8632813v-1.7146111h.4909516c.4537582 0 .8517265-.077486 1.1939049-.2324581.3421783-.1549721.6056308-.3737927.7903575-.6564617.1847268-.2826691.2770901-.6062508.2770901-.9707451 0-.6025315-.1741886-1.0463715-.5225658-1.3315201s-.8982182-.4277229-1.6495228-.4277229h-2.1869659v5.333519zm.360775-2.863884h-.360775v-1.3166428h.3049851c.2454758 0 .4314423.05579.5578995.1673699s.1896858.2764701.1896858.4946708c0 .4364014-.2305985.6546021-.6917954.6546021z"/></defs><g fill="none" fill-rule="nonzero"><g><path d="m12.7107349 5.94086944c-4.39889382-.01809585-8.28780978 2.19552074-10.64158066 5.55605366-.95315015 1.3604023-1.65465988 2.912331-2.03634732 4.5868873-.02174744-.3073539-.03280692-.6176783-.03280692-.9305995 0-7.13938233 5.75687287-12.92699528 12.8583156-12.92699528 7.7156746 0 13.1416844 5.35520507 13.1416844 11.96118528 0 5.1434459-3.2893826 9.5286407-7.9052032 11.2182545-1.1218089.3846995-2.2680121.5943446-3.4629204.5943446-5.55055989 0-10.34577119-4.5236515-10.34577119-10.1038584 0-.9586826.13280816-1.8861805.67653051-2.7649129-.20403625.5420169-.23314031.9442637-.23314031 1.3533444 0 4.6364955 3.88644979 8.2465316 8.49831209 8.2465316s8.3505153-3.7586222 8.3505153-8.3951177c0-3.9264959-2.6813024-7.22339511-6.3035522-8.14104693-.7383616-.14842836-1.4932306-.25055184-2.5640357-.25407063z" fill="url(#a)" transform="matrix(-1 0 0 -1 26 28.226216)"/><path d="m12.7107349 3.71465381c-4.39889382-.01809585-8.28780978 2.19552075-10.64158066 5.55605366-.95315015 1.36040223-1.65465988 2.91233103-2.03634732 4.58688733-.02174744-.307354-.03280692-.6176783-.03280692-.9305996 0-7.1393823 5.75687288-12.9269952 12.8583156-12.9269952 7.7156746 0 13.1416844 5.35520507 13.1416844 11.9611852 0 5.143446-3.2893826 9.5286407-7.9052032 11.2182546-1.1218089.3846995-2.2680121.5943446-3.4629204.5943446-5.55055989 0-10.34577119-4.5236515-10.34577119-10.1038584 0-.9586826.13280816-1.8861806.67653051-2.764913-.20403625.542017-.23314031.9442638-.23314031 1.3533446 0 4.6364954 3.88644979 8.2465314 8.49831209 8.2465314s8.3505153-3.7586222 8.3505153-8.3951176c0-3.92649595-2.6813024-7.22339516-6.3035522-8.14104696-.7383616-.14842837-1.4932306-.25055187-2.5640357-.25407063z" fill="url(#b)"/></g><circle cx="20.007813" cy="18.992188" fill="#5930dd" r="5.992188"/><g><use fill="#000" xlink:href="#c"/><use fill="#fff" xlink:href="#c"/></g></g></svg>