<?xml version="1.0" encoding="UTF-8"?>
<svg width="26px" height="26px" viewBox="0 0 26 26" version="1.1" xmlns="http://www.w3.org/2000/svg" xmlns:xlink="http://www.w3.org/1999/xlink">
    <title>币/Darwinia</title>
    <defs>
        <linearGradient x1="-2.22044605e-14%" y1="50%" x2="100%" y2="50%" id="linearGradient-1">
            <stop stop-color="#929297" offset="0%"></stop>
            <stop stop-color="#88878D" offset="78.0357361%"></stop>
            <stop stop-color="#BAB9C6" offset="100%"></stop>
        </linearGradient>
        <linearGradient x1="-1.11022302e-14%" y1="50%" x2="100%" y2="50%" id="linearGradient-2">
            <stop stop-color="#919FB7" offset="0%"></stop>
            <stop stop-color="#F8FAFE" offset="100%"></stop>
        </linearGradient>
    </defs>
    <g id="币/Darwinia" stroke="none" stroke-width="1" fill="none" fill-rule="evenodd">
        <g id="编组" transform="translate(-0.000000, 0.000000)">
            <path d="M12.3929665,5.79234771 C8.10404503,5.77470426 4.312352,7.93298043 2.01742538,11.2095 C1.08810399,12.5358923 0.404132002,14.0490228 0.0319867438,15.6817151 C0.0107829929,15.382045 -2.73558953e-13,15.0794788 -2.73558953e-13,14.7743806 C-2.73558953e-13,7.81348284 5.61295104,2.17056025 12.5368577,2.17056025 C20.0596405,2.17056025 25.35,7.39188518 25.35,13.8327159 C25.35,18.8475756 22.142852,23.1231405 17.6424269,24.770514 C16.5486633,25.145596 15.4311151,25.35 14.2660795,25.35 C8.8542836,25.35 4.17895258,20.9394398 4.17895258,15.4987381 C4.17895258,14.5640225 4.30844054,13.659712 4.83856982,12.8029479 C4.63963448,13.3314145 4.61125802,13.7236051 4.61125802,14.1224589 C4.61125802,18.6430419 8.40054657,22.162827 12.8971123,22.162827 C17.393678,22.162827 21.0388647,18.4981704 21.0388647,13.9775874 C21.0388647,10.1492538 18.4245949,6.93477709 14.8929013,6.04006658 C14.1729988,5.89534892 13.4370015,5.79577851 12.3929665,5.79234771 Z" id="Combined-Shape-Copy-34" fill="url(#linearGradient-1)" transform="translate(12.675000, 13.760280) scale(-1, -1) translate(-12.675000, -13.760280) "></path>
            <path d="M12.3929665,3.62178746 C8.10404503,3.60414401 4.312352,5.76242018 2.01742538,9.03893977 C1.08810399,10.365332 0.404132002,11.8784625 0.0319867438,13.5111549 C0.0107829929,13.2114848 -2.73558953e-13,12.9089185 -2.73558953e-13,12.6038204 C-2.73558953e-13,5.64292259 5.61295104,-3.55271368e-15 12.5368577,-3.55271368e-15 C20.0596405,-3.55271368e-15 25.35,5.22132492 25.35,11.6621556 C25.35,16.6770154 22.142852,20.9525803 17.6424269,22.5999538 C16.5486633,22.9750358 15.4311151,23.1794397 14.2660795,23.1794397 C8.8542836,23.1794397 4.17895258,18.7688796 4.17895258,13.3281779 C4.17895258,12.3934623 4.30844054,11.4891518 4.83856982,10.6323877 C4.63963448,11.1608542 4.61125802,11.5530449 4.61125802,11.9518986 C4.61125802,16.4724817 8.40054657,19.9922668 12.8971123,19.9922668 C17.393678,19.9922668 21.0388647,16.3276102 21.0388647,11.8070271 C21.0388647,7.97869358 18.4245949,4.76421683 14.8929013,3.86950633 C14.1729988,3.72478867 13.4370015,3.62521826 12.3929665,3.62178746 Z" id="Combined-Shape-Copy-41" fill="url(#linearGradient-2)"></path>
        </g>
    </g>
</svg>